<mxfile host="Electron" modified="2023-12-06T12:07:23.149Z" agent="Mozilla/5.0 (Windows NT 10.0; Win64; x64) AppleWebKit/537.36 (KHTML, like Gecko) draw.io/22.0.3 Chrome/114.0.5735.289 Electron/25.8.4 Safari/537.36" etag="BySAoHL3d5H2I9If7ro4" version="22.0.3" type="device">
  <diagram name="第 1 页" id="hXZAMsdlzZUX4cEna1v9">
    <mxGraphModel dx="2808" dy="1077" grid="1" gridSize="10" guides="1" tooltips="1" connect="1" arrows="1" fold="1" page="0" pageScale="1" pageWidth="1169" pageHeight="1654" background="none" math="0" shadow="0">
      <root>
        <mxCell id="0" />
        <mxCell id="1" parent="0" />
        <mxCell id="WJQeLxs7-rynea292Qw6-19" value="&lt;font face=&quot;Times New Roman&quot; style=&quot;font-size: 24px;&quot;&gt;&lt;i&gt;IM&lt;/i&gt;&lt;/font&gt;" style="whiteSpace=wrap;html=1;" parent="1" vertex="1">
          <mxGeometry x="-800" y="1760" width="160" height="240" as="geometry" />
        </mxCell>
        <mxCell id="WJQeLxs7-rynea292Qw6-21" value="&lt;font face=&quot;Times New Roman&quot; style=&quot;font-size: 24px;&quot;&gt;&lt;i&gt;DM&lt;/i&gt;&lt;/font&gt;" style="whiteSpace=wrap;html=1;" parent="1" vertex="1">
          <mxGeometry x="1090" y="1950" width="160" height="240" as="geometry" />
        </mxCell>
        <mxCell id="WJQeLxs7-rynea292Qw6-22" value="&lt;font face=&quot;Times New Roman&quot; style=&quot;font-size: 24px;&quot;&gt;&lt;i&gt;GRF&lt;/i&gt;&lt;/font&gt;" style="whiteSpace=wrap;html=1;" parent="1" vertex="1">
          <mxGeometry x="-160" y="960" width="160" height="240" as="geometry" />
        </mxCell>
        <mxCell id="WJQeLxs7-rynea292Qw6-27" value="" style="edgeStyle=none;orthogonalLoop=1;jettySize=auto;html=1;rounded=0;endArrow=none;endFill=0;" parent="1" edge="1">
          <mxGeometry width="80" relative="1" as="geometry">
            <mxPoint x="780" y="1000" as="sourcePoint" />
            <mxPoint x="780" y="1000" as="targetPoint" />
            <Array as="points">
              <mxPoint x="780" y="1160" />
              <mxPoint x="660" y="1200" />
              <mxPoint x="660" y="1120" />
              <mxPoint x="700" y="1080" />
              <mxPoint x="660" y="1040" />
              <mxPoint x="660" y="960" />
            </Array>
          </mxGeometry>
        </mxCell>
        <mxCell id="WJQeLxs7-rynea292Qw6-28" value="" style="whiteSpace=wrap;html=1;" parent="1" vertex="1">
          <mxGeometry x="-360" y="760" width="40" height="840" as="geometry" />
        </mxCell>
        <mxCell id="WJQeLxs7-rynea292Qw6-29" value="" style="whiteSpace=wrap;html=1;" parent="1" vertex="1">
          <mxGeometry x="330" y="760" width="40" height="840" as="geometry" />
        </mxCell>
        <mxCell id="WJQeLxs7-rynea292Qw6-30" value="" style="whiteSpace=wrap;html=1;" parent="1" vertex="1">
          <mxGeometry x="890" y="760" width="40" height="840" as="geometry" />
        </mxCell>
        <mxCell id="WJQeLxs7-rynea292Qw6-31" value="&lt;font face=&quot;Times New Roman&quot; style=&quot;font-size: 22px;&quot;&gt;&lt;i&gt;ALU&lt;/i&gt;&lt;/font&gt;" style="text;strokeColor=none;align=center;fillColor=none;html=1;verticalAlign=middle;whiteSpace=wrap;rounded=0;" parent="1" vertex="1">
          <mxGeometry x="700" y="1065" width="60" height="30" as="geometry" />
        </mxCell>
        <mxCell id="WJQeLxs7-rynea292Qw6-33" value="&lt;font face=&quot;Times New Roman&quot; style=&quot;font-size: 18px;&quot;&gt;&lt;i&gt;CTRL&lt;/i&gt;&lt;/font&gt;" style="whiteSpace=wrap;html=1;" parent="1" vertex="1">
          <mxGeometry x="-550" y="700" width="100" height="100" as="geometry" />
        </mxCell>
        <mxCell id="WJQeLxs7-rynea292Qw6-40" value="" style="edgeStyle=none;orthogonalLoop=1;jettySize=auto;html=1;rounded=0;entryX=0;entryY=0.5;entryDx=0;entryDy=0;" parent="1" target="WJQeLxs7-rynea292Qw6-33" edge="1">
          <mxGeometry width="80" relative="1" as="geometry">
            <mxPoint x="-600" y="1080" as="sourcePoint" />
            <mxPoint x="-600" y="1080" as="targetPoint" />
            <Array as="points">
              <mxPoint x="-600" y="750" />
            </Array>
          </mxGeometry>
        </mxCell>
        <mxCell id="WJQeLxs7-rynea292Qw6-42" value="&lt;font face=&quot;Times New Roman&quot; style=&quot;font-size: 20px;&quot;&gt;&lt;i&gt;CMP&lt;/i&gt;&lt;/font&gt;" style="rounded=0;whiteSpace=wrap;html=1;" parent="1" vertex="1">
          <mxGeometry x="-80" y="680" width="80" height="80" as="geometry" />
        </mxCell>
        <mxCell id="WJQeLxs7-rynea292Qw6-43" value="&lt;font face=&quot;Times New Roman&quot; style=&quot;font-size: 20px;&quot;&gt;&lt;i&gt;NPC&lt;/i&gt;&lt;/font&gt;" style="rounded=0;whiteSpace=wrap;html=1;" parent="1" vertex="1">
          <mxGeometry x="-1040" y="840" width="80" height="80" as="geometry" />
        </mxCell>
        <mxCell id="WJQeLxs7-rynea292Qw6-44" value="&lt;font face=&quot;Times New Roman&quot; style=&quot;font-size: 20px;&quot;&gt;&lt;i&gt;PC&lt;/i&gt;&lt;/font&gt;" style="rounded=0;whiteSpace=wrap;html=1;" parent="1" vertex="1">
          <mxGeometry x="-1040" y="1040" width="80" height="80" as="geometry" />
        </mxCell>
        <mxCell id="WJQeLxs7-rynea292Qw6-48" value="" style="edgeStyle=none;orthogonalLoop=1;jettySize=auto;html=1;rounded=0;exitX=0.5;exitY=1;exitDx=0;exitDy=0;entryX=0.5;entryY=0;entryDx=0;entryDy=0;" parent="1" source="WJQeLxs7-rynea292Qw6-43" target="WJQeLxs7-rynea292Qw6-44" edge="1">
          <mxGeometry width="80" relative="1" as="geometry">
            <mxPoint x="-840" y="740" as="sourcePoint" />
            <mxPoint x="-760" y="740" as="targetPoint" />
            <Array as="points" />
          </mxGeometry>
        </mxCell>
        <mxCell id="WJQeLxs7-rynea292Qw6-49" value="" style="endArrow=classic;html=1;rounded=0;exitX=1;exitY=0.5;exitDx=0;exitDy=0;entryX=0;entryY=0.5;entryDx=0;entryDy=0;" parent="1" source="WJQeLxs7-rynea292Qw6-44" target="JT2qfYYeaw6__FSpLCJn-2" edge="1">
          <mxGeometry width="50" height="50" relative="1" as="geometry">
            <mxPoint x="-940" y="900" as="sourcePoint" />
            <mxPoint x="-920" y="1090" as="targetPoint" />
          </mxGeometry>
        </mxCell>
        <mxCell id="WJQeLxs7-rynea292Qw6-50" value="" style="edgeStyle=none;orthogonalLoop=1;jettySize=auto;html=1;rounded=0;entryX=0.006;entryY=0.164;entryDx=0;entryDy=0;entryPerimeter=0;" parent="1" target="WJQeLxs7-rynea292Qw6-22" edge="1">
          <mxGeometry width="80" relative="1" as="geometry">
            <mxPoint x="-320" y="999" as="sourcePoint" />
            <mxPoint x="-340" y="1200" as="targetPoint" />
            <Array as="points" />
          </mxGeometry>
        </mxCell>
        <mxCell id="WJQeLxs7-rynea292Qw6-51" value="" style="edgeStyle=none;orthogonalLoop=1;jettySize=auto;html=1;rounded=0;exitX=1.011;exitY=0.352;exitDx=0;exitDy=0;exitPerimeter=0;entryX=-0.01;entryY=0.333;entryDx=0;entryDy=0;entryPerimeter=0;" parent="1" target="WJQeLxs7-rynea292Qw6-22" edge="1">
          <mxGeometry width="80" relative="1" as="geometry">
            <mxPoint x="-321" y="1040" as="sourcePoint" />
            <mxPoint x="-200" y="1040" as="targetPoint" />
            <Array as="points" />
          </mxGeometry>
        </mxCell>
        <mxCell id="WJQeLxs7-rynea292Qw6-52" value="" style="edgeStyle=none;orthogonalLoop=1;jettySize=auto;html=1;rounded=0;exitX=1.001;exitY=0.17;exitDx=0;exitDy=0;exitPerimeter=0;" parent="1" source="WJQeLxs7-rynea292Qw6-22" edge="1">
          <mxGeometry width="80" relative="1" as="geometry">
            <mxPoint y="1001" as="sourcePoint" />
            <mxPoint x="130" y="1001" as="targetPoint" />
            <Array as="points" />
          </mxGeometry>
        </mxCell>
        <mxCell id="WJQeLxs7-rynea292Qw6-53" value="" style="edgeStyle=none;orthogonalLoop=1;jettySize=auto;html=1;rounded=0;" parent="1" edge="1">
          <mxGeometry width="80" relative="1" as="geometry">
            <mxPoint y="1120" as="sourcePoint" />
            <mxPoint x="130" y="1120" as="targetPoint" />
            <Array as="points" />
          </mxGeometry>
        </mxCell>
        <mxCell id="WJQeLxs7-rynea292Qw6-54" value="" style="endArrow=classic;html=1;rounded=0;entryX=1;entryY=0.25;entryDx=0;entryDy=0;" parent="1" target="WJQeLxs7-rynea292Qw6-42" edge="1">
          <mxGeometry width="50" height="50" relative="1" as="geometry">
            <mxPoint x="260" y="1120" as="sourcePoint" />
            <mxPoint x="-50" y="910" as="targetPoint" />
            <Array as="points">
              <mxPoint x="260" y="700" />
            </Array>
          </mxGeometry>
        </mxCell>
        <mxCell id="WJQeLxs7-rynea292Qw6-55" value="" style="edgeStyle=none;orthogonalLoop=1;jettySize=auto;html=1;rounded=0;entryX=1;entryY=0.75;entryDx=0;entryDy=0;" parent="1" target="WJQeLxs7-rynea292Qw6-42" edge="1">
          <mxGeometry width="80" relative="1" as="geometry">
            <mxPoint x="220" y="1000" as="sourcePoint" />
            <mxPoint x="-10" y="740" as="targetPoint" />
            <Array as="points">
              <mxPoint x="220" y="800" />
              <mxPoint x="40" y="800" />
              <mxPoint x="40" y="740" />
            </Array>
          </mxGeometry>
        </mxCell>
        <mxCell id="WJQeLxs7-rynea292Qw6-56" value="" style="edgeStyle=none;orthogonalLoop=1;jettySize=auto;html=1;rounded=0;entryX=0.5;entryY=0;entryDx=0;entryDy=0;" parent="1" edge="1">
          <mxGeometry width="80" relative="1" as="geometry">
            <mxPoint x="-320" y="1080" as="sourcePoint" />
            <mxPoint x="-1000" y="840" as="targetPoint" />
            <Array as="points">
              <mxPoint x="-280" y="1080" />
              <mxPoint x="-280" y="600" />
              <mxPoint x="-1000" y="600" />
            </Array>
          </mxGeometry>
        </mxCell>
        <mxCell id="WJQeLxs7-rynea292Qw6-57" value="" style="endArrow=classic;html=1;rounded=0;entryX=0.25;entryY=0;entryDx=0;entryDy=0;" parent="1" target="WJQeLxs7-rynea292Qw6-43" edge="1">
          <mxGeometry width="50" height="50" relative="1" as="geometry">
            <mxPoint x="40" y="740" as="sourcePoint" />
            <mxPoint x="80" y="580" as="targetPoint" />
            <Array as="points">
              <mxPoint x="40" y="560" />
              <mxPoint x="-1020" y="560" />
            </Array>
          </mxGeometry>
        </mxCell>
        <mxCell id="WJQeLxs7-rynea292Qw6-59" value="" style="edgeStyle=none;orthogonalLoop=1;jettySize=auto;html=1;rounded=0;exitX=0;exitY=0.5;exitDx=0;exitDy=0;entryX=0.75;entryY=0;entryDx=0;entryDy=0;" parent="1" source="WJQeLxs7-rynea292Qw6-42" target="WJQeLxs7-rynea292Qw6-43" edge="1">
          <mxGeometry width="80" relative="1" as="geometry">
            <mxPoint x="-210" y="730" as="sourcePoint" />
            <mxPoint x="-130" y="730" as="targetPoint" />
            <Array as="points">
              <mxPoint x="-120" y="720" />
              <mxPoint x="-120" y="640" />
              <mxPoint x="-980" y="640" />
            </Array>
          </mxGeometry>
        </mxCell>
        <mxCell id="WJQeLxs7-rynea292Qw6-60" value="" style="edgeStyle=none;orthogonalLoop=1;jettySize=auto;html=1;rounded=0;" parent="1" edge="1">
          <mxGeometry width="80" relative="1" as="geometry">
            <mxPoint x="-280" y="1080" as="sourcePoint" />
            <mxPoint x="330" y="1280" as="targetPoint" />
            <Array as="points">
              <mxPoint x="-280" y="1280" />
            </Array>
          </mxGeometry>
        </mxCell>
        <mxCell id="WJQeLxs7-rynea292Qw6-63" value="" style="edgeStyle=none;orthogonalLoop=1;jettySize=auto;html=1;rounded=0;exitX=1;exitY=0.5;exitDx=0;exitDy=0;" parent="1" source="WJQeLxs7-rynea292Qw6-68" edge="1">
          <mxGeometry width="80" relative="1" as="geometry">
            <mxPoint x="582" y="1160" as="sourcePoint" />
            <mxPoint x="660" y="1160" as="targetPoint" />
            <Array as="points">
              <mxPoint x="620" y="1180" />
              <mxPoint x="620" y="1160" />
            </Array>
          </mxGeometry>
        </mxCell>
        <mxCell id="WJQeLxs7-rynea292Qw6-64" value="" style="edgeStyle=none;orthogonalLoop=1;jettySize=auto;html=1;rounded=0;exitX=0.992;exitY=0.458;exitDx=0;exitDy=0;exitPerimeter=0;" parent="1" source="WJQeLxs7-rynea292Qw6-65" edge="1">
          <mxGeometry width="80" relative="1" as="geometry">
            <mxPoint x="582" y="1000" as="sourcePoint" />
            <mxPoint x="660" y="1000" as="targetPoint" />
            <Array as="points" />
          </mxGeometry>
        </mxCell>
        <mxCell id="WJQeLxs7-rynea292Qw6-65" value="" style="rounded=0;whiteSpace=wrap;html=1;" parent="1" vertex="1">
          <mxGeometry x="550.25" y="945" width="30" height="120" as="geometry" />
        </mxCell>
        <mxCell id="WJQeLxs7-rynea292Qw6-68" value="" style="rounded=0;whiteSpace=wrap;html=1;" parent="1" vertex="1">
          <mxGeometry x="550.25" y="1130" width="30" height="100" as="geometry" />
        </mxCell>
        <mxCell id="WJQeLxs7-rynea292Qw6-69" value="" style="endArrow=classic;html=1;rounded=0;" parent="1" edge="1">
          <mxGeometry width="50" height="50" relative="1" as="geometry">
            <mxPoint x="370" y="1280" as="sourcePoint" />
            <mxPoint x="470" y="1210" as="targetPoint" />
            <Array as="points">
              <mxPoint x="400" y="1280" />
              <mxPoint x="400" y="1210" />
            </Array>
          </mxGeometry>
        </mxCell>
        <mxCell id="WJQeLxs7-rynea292Qw6-70" value="&lt;i&gt;&lt;font face=&quot;Times New Roman&quot;&gt;Imm&lt;/font&gt;&lt;/i&gt;" style="text;strokeColor=none;align=center;fillColor=none;html=1;verticalAlign=middle;whiteSpace=wrap;rounded=0;" parent="1" vertex="1">
          <mxGeometry x="555.25" y="1200" width="20" height="20" as="geometry" />
        </mxCell>
        <mxCell id="WJQeLxs7-rynea292Qw6-71" value="&lt;i&gt;&lt;font face=&quot;Times New Roman&quot;&gt;s&lt;/font&gt;&lt;/i&gt;" style="text;strokeColor=none;align=center;fillColor=none;html=1;verticalAlign=middle;whiteSpace=wrap;rounded=0;" parent="1" vertex="1">
          <mxGeometry x="554.25" y="1020" width="23.5" height="20" as="geometry" />
        </mxCell>
        <mxCell id="WJQeLxs7-rynea292Qw6-72" value="&lt;font face=&quot;Times New Roman&quot;&gt;&lt;i&gt;rd2&lt;/i&gt;&lt;/font&gt;" style="text;strokeColor=none;align=center;fillColor=none;html=1;verticalAlign=middle;whiteSpace=wrap;rounded=0;" parent="1" vertex="1">
          <mxGeometry x="552.75" y="1140" width="25" height="20" as="geometry" />
        </mxCell>
        <mxCell id="WJQeLxs7-rynea292Qw6-75" value="&lt;font face=&quot;Times New Roman&quot;&gt;&lt;i&gt;rd1&lt;/i&gt;&lt;/font&gt;" style="text;strokeColor=none;align=center;fillColor=none;html=1;verticalAlign=middle;whiteSpace=wrap;rounded=0;" parent="1" vertex="1">
          <mxGeometry x="556" y="975" width="20" height="10" as="geometry" />
        </mxCell>
        <mxCell id="WJQeLxs7-rynea292Qw6-83" value="" style="whiteSpace=wrap;html=1;" parent="1" vertex="1">
          <mxGeometry x="1410" y="760" width="40" height="840" as="geometry" />
        </mxCell>
        <mxCell id="WJQeLxs7-rynea292Qw6-96" value="" style="edgeStyle=none;orthogonalLoop=1;jettySize=auto;html=1;rounded=0;" parent="1" edge="1">
          <mxGeometry width="80" relative="1" as="geometry">
            <mxPoint x="-319" y="1519" as="sourcePoint" />
            <mxPoint x="331" y="1519" as="targetPoint" />
            <Array as="points" />
          </mxGeometry>
        </mxCell>
        <mxCell id="WJQeLxs7-rynea292Qw6-97" value="&lt;i&gt;&lt;font style=&quot;font-size: 20px;&quot; face=&quot;Times New Roman&quot;&gt;d_pc&lt;/font&gt;&lt;/i&gt;" style="text;strokeColor=none;align=center;fillColor=none;html=1;verticalAlign=middle;whiteSpace=wrap;rounded=0;" parent="1" vertex="1">
          <mxGeometry x="-9" y="1519" width="40" height="30" as="geometry" />
        </mxCell>
        <mxCell id="WJQeLxs7-rynea292Qw6-98" value="" style="edgeStyle=none;orthogonalLoop=1;jettySize=auto;html=1;rounded=0;" parent="1" edge="1">
          <mxGeometry width="80" relative="1" as="geometry">
            <mxPoint x="-320" y="859.47" as="sourcePoint" />
            <mxPoint x="330" y="860" as="targetPoint" />
            <Array as="points" />
          </mxGeometry>
        </mxCell>
        <mxCell id="WJQeLxs7-rynea292Qw6-99" value="" style="edgeStyle=none;orthogonalLoop=1;jettySize=auto;html=1;rounded=0;" parent="1" edge="1">
          <mxGeometry width="80" relative="1" as="geometry">
            <mxPoint x="371" y="1519" as="sourcePoint" />
            <mxPoint x="891" y="1519" as="targetPoint" />
            <Array as="points" />
          </mxGeometry>
        </mxCell>
        <mxCell id="WJQeLxs7-rynea292Qw6-100" value="&lt;i&gt;&lt;font style=&quot;font-size: 20px;&quot; face=&quot;Times New Roman&quot;&gt;e_pc&lt;/font&gt;&lt;/i&gt;" style="text;strokeColor=none;align=center;fillColor=none;html=1;verticalAlign=middle;whiteSpace=wrap;rounded=0;" parent="1" vertex="1">
          <mxGeometry x="671" y="1519" width="40" height="30" as="geometry" />
        </mxCell>
        <mxCell id="WJQeLxs7-rynea292Qw6-101" value="" style="edgeStyle=none;orthogonalLoop=1;jettySize=auto;html=1;rounded=0;" parent="1" edge="1">
          <mxGeometry width="80" relative="1" as="geometry">
            <mxPoint x="780" y="1080" as="sourcePoint" />
            <mxPoint x="890" y="920" as="targetPoint" />
            <Array as="points">
              <mxPoint x="860" y="1080" />
              <mxPoint x="860" y="920" />
            </Array>
          </mxGeometry>
        </mxCell>
        <mxCell id="WJQeLxs7-rynea292Qw6-106" value="" style="edgeStyle=none;orthogonalLoop=1;jettySize=auto;html=1;rounded=0;" parent="1" edge="1">
          <mxGeometry width="80" relative="1" as="geometry">
            <mxPoint x="370" y="860" as="sourcePoint" />
            <mxPoint x="890" y="860" as="targetPoint" />
            <Array as="points" />
          </mxGeometry>
        </mxCell>
        <mxCell id="WJQeLxs7-rynea292Qw6-110" value="&lt;i&gt;&lt;font style=&quot;font-size: 20px;&quot; face=&quot;Times New Roman&quot;&gt;STALL&lt;/font&gt;&lt;/i&gt;" style="whiteSpace=wrap;html=1;fillColor=#60a917;fontColor=#ffffff;strokeColor=#2D7600;strokeWidth=3;" parent="1" vertex="1">
          <mxGeometry x="-80" y="300" width="80" height="80" as="geometry" />
        </mxCell>
        <mxCell id="WJQeLxs7-rynea292Qw6-111" value="" style="edgeStyle=none;orthogonalLoop=1;jettySize=auto;html=1;rounded=0;entryX=1;entryY=0.75;entryDx=0;entryDy=0;fillColor=#60a917;strokeColor=#2D7600;strokeWidth=3;" parent="1" target="WJQeLxs7-rynea292Qw6-110" edge="1">
          <mxGeometry width="80" relative="1" as="geometry">
            <mxPoint x="500" y="860" as="sourcePoint" />
            <mxPoint x="460" y="710" as="targetPoint" />
            <Array as="points">
              <mxPoint x="500" y="360" />
            </Array>
          </mxGeometry>
        </mxCell>
        <mxCell id="WJQeLxs7-rynea292Qw6-114" value="&lt;i&gt;&lt;font style=&quot;font-size: 40px;&quot; face=&quot;Times New Roman&quot;&gt;D&lt;/font&gt;&lt;/i&gt;" style="text;strokeColor=none;align=center;fillColor=none;html=1;verticalAlign=middle;whiteSpace=wrap;rounded=0;" parent="1" vertex="1">
          <mxGeometry x="-369" y="1565" width="60" height="30" as="geometry" />
        </mxCell>
        <mxCell id="WJQeLxs7-rynea292Qw6-115" value="&lt;font face=&quot;Times New Roman&quot;&gt;&lt;span style=&quot;font-size: 40px;&quot;&gt;&lt;i&gt;E&lt;/i&gt;&lt;/span&gt;&lt;/font&gt;" style="text;strokeColor=none;align=center;fillColor=none;html=1;verticalAlign=middle;whiteSpace=wrap;rounded=0;" parent="1" vertex="1">
          <mxGeometry x="321" y="1565" width="60" height="30" as="geometry" />
        </mxCell>
        <mxCell id="WJQeLxs7-rynea292Qw6-116" value="&lt;i&gt;&lt;font style=&quot;font-size: 40px;&quot; face=&quot;Times New Roman&quot;&gt;M&lt;/font&gt;&lt;/i&gt;" style="text;strokeColor=none;align=center;fillColor=none;html=1;verticalAlign=middle;whiteSpace=wrap;rounded=0;" parent="1" vertex="1">
          <mxGeometry x="881" y="1565" width="60" height="30" as="geometry" />
        </mxCell>
        <mxCell id="WJQeLxs7-rynea292Qw6-117" value="&lt;i&gt;&lt;font style=&quot;font-size: 40px;&quot; face=&quot;Times New Roman&quot;&gt;W&lt;/font&gt;&lt;/i&gt;" style="text;strokeColor=none;align=center;fillColor=none;html=1;verticalAlign=middle;whiteSpace=wrap;rounded=0;" parent="1" vertex="1">
          <mxGeometry x="1401" y="1565" width="60" height="30" as="geometry" />
        </mxCell>
        <mxCell id="WJQeLxs7-rynea292Qw6-119" value="" style="edgeStyle=none;orthogonalLoop=1;jettySize=auto;html=1;rounded=0;exitX=0.75;exitY=1;exitDx=0;exitDy=0;entryX=0.25;entryY=0;entryDx=0;entryDy=0;fillColor=#60a917;strokeColor=#2D7600;strokeWidth=3;" parent="1" source="WJQeLxs7-rynea292Qw6-110" target="WJQeLxs7-rynea292Qw6-29" edge="1">
          <mxGeometry width="80" relative="1" as="geometry">
            <mxPoint x="-20" y="450" as="sourcePoint" />
            <mxPoint x="60" y="450" as="targetPoint" />
            <Array as="points">
              <mxPoint x="-20" y="400" />
              <mxPoint x="340" y="400" />
            </Array>
          </mxGeometry>
        </mxCell>
        <mxCell id="WJQeLxs7-rynea292Qw6-120" value="" style="edgeStyle=none;orthogonalLoop=1;jettySize=auto;html=1;rounded=0;exitX=0.25;exitY=0;exitDx=0;exitDy=0;entryX=0;entryY=0.75;entryDx=0;entryDy=0;fillColor=#60a917;strokeColor=#2D7600;strokeWidth=3;" parent="1" source="WJQeLxs7-rynea292Qw6-110" target="WJQeLxs7-rynea292Qw6-43" edge="1">
          <mxGeometry width="80" relative="1" as="geometry">
            <mxPoint x="-320" y="280" as="sourcePoint" />
            <mxPoint x="-600" y="320" as="targetPoint" />
            <Array as="points">
              <mxPoint x="-60" y="240" />
              <mxPoint x="-1120" y="240" />
              <mxPoint x="-1120" y="900" />
            </Array>
          </mxGeometry>
        </mxCell>
        <mxCell id="WJQeLxs7-rynea292Qw6-125" value="" style="edgeStyle=none;orthogonalLoop=1;jettySize=auto;html=1;strokeWidth=5;fillColor=#f8cecc;strokeColor=#b85450;rounded=0;entryX=0.5;entryY=0;entryDx=0;entryDy=0;" parent="1" target="JT2qfYYeaw6__FSpLCJn-31" edge="1">
          <mxGeometry width="80" relative="1" as="geometry">
            <mxPoint x="1380" y="860" as="sourcePoint" />
            <mxPoint x="460" y="970" as="targetPoint" />
            <Array as="points">
              <mxPoint x="1380" y="720" />
              <mxPoint x="460" y="720" />
            </Array>
          </mxGeometry>
        </mxCell>
        <mxCell id="WJQeLxs7-rynea292Qw6-127" value="" style="edgeStyle=none;orthogonalLoop=1;jettySize=auto;html=1;rounded=0;entryX=0;entryY=0.5;entryDx=0;entryDy=0;" parent="1" target="JT2qfYYeaw6__FSpLCJn-30" edge="1">
          <mxGeometry width="80" relative="1" as="geometry">
            <mxPoint x="930" y="1140" as="sourcePoint" />
            <mxPoint x="1050" y="1139.9999999999998" as="targetPoint" />
            <Array as="points" />
          </mxGeometry>
        </mxCell>
        <mxCell id="WJQeLxs7-rynea292Qw6-129" value="" style="edgeStyle=none;orthogonalLoop=1;jettySize=auto;html=1;rounded=0;" parent="1" edge="1">
          <mxGeometry width="80" relative="1" as="geometry">
            <mxPoint x="930" y="860" as="sourcePoint" />
            <mxPoint x="1410" y="860" as="targetPoint" />
            <Array as="points" />
          </mxGeometry>
        </mxCell>
        <mxCell id="WJQeLxs7-rynea292Qw6-130" value="" style="edgeStyle=none;orthogonalLoop=1;jettySize=auto;html=1;rounded=0;entryX=0;entryY=0.381;entryDx=0;entryDy=0;entryPerimeter=0;" parent="1" target="WJQeLxs7-rynea292Qw6-83" edge="1">
          <mxGeometry width="80" relative="1" as="geometry">
            <mxPoint x="1250" y="2070" as="sourcePoint" />
            <mxPoint x="1460" y="1070" as="targetPoint" />
            <Array as="points">
              <mxPoint x="1310" y="2070" />
              <mxPoint x="1310" y="1080" />
            </Array>
          </mxGeometry>
        </mxCell>
        <mxCell id="WJQeLxs7-rynea292Qw6-131" value="" style="edgeStyle=none;orthogonalLoop=1;jettySize=auto;html=1;strokeWidth=5;fillColor=#f8cecc;strokeColor=#b85450;rounded=0;" parent="1" edge="1">
          <mxGeometry width="80" relative="1" as="geometry">
            <mxPoint x="1700" y="1100" as="sourcePoint" />
            <mxPoint x="460" y="720" as="targetPoint" />
            <Array as="points">
              <mxPoint x="1700" y="640" />
              <mxPoint x="460" y="640" />
            </Array>
          </mxGeometry>
        </mxCell>
        <mxCell id="WJQeLxs7-rynea292Qw6-132" value="" style="edgeStyle=none;orthogonalLoop=1;jettySize=auto;html=1;strokeWidth=5;fillColor=#f8cecc;strokeColor=#b85450;rounded=0;" parent="1" edge="1">
          <mxGeometry width="80" relative="1" as="geometry">
            <mxPoint x="462" y="950" as="sourcePoint" />
            <mxPoint x="461.79999999999995" y="1100" as="targetPoint" />
            <Array as="points">
              <mxPoint x="502" y="950" />
              <mxPoint x="502" y="1050" />
              <mxPoint x="462" y="1050" />
            </Array>
          </mxGeometry>
        </mxCell>
        <mxCell id="WJQeLxs7-rynea292Qw6-133" value="" style="edgeStyle=none;orthogonalLoop=1;jettySize=auto;html=1;strokeWidth=5;fillColor=#f8cecc;strokeColor=#b85450;rounded=0;entryX=0.5;entryY=0;entryDx=0;entryDy=0;" parent="1" target="WJQeLxs7-rynea292Qw6-138" edge="1">
          <mxGeometry width="80" relative="1" as="geometry">
            <mxPoint x="460" y="740" as="sourcePoint" />
            <mxPoint x="260" y="960" as="targetPoint" />
            <Array as="points">
              <mxPoint x="150" y="740" />
            </Array>
          </mxGeometry>
        </mxCell>
        <mxCell id="WJQeLxs7-rynea292Qw6-135" value="" style="edgeStyle=none;orthogonalLoop=1;jettySize=auto;html=1;strokeWidth=5;fillColor=#f8cecc;strokeColor=#b85450;rounded=0;" parent="1" edge="1">
          <mxGeometry width="80" relative="1" as="geometry">
            <mxPoint x="1050" y="640" as="sourcePoint" />
            <mxPoint x="1050" y="1120" as="targetPoint" />
            <Array as="points" />
          </mxGeometry>
        </mxCell>
        <mxCell id="WJQeLxs7-rynea292Qw6-136" value="" style="edgeStyle=none;orthogonalLoop=1;jettySize=auto;html=1;rounded=0;entryX=1;entryY=0.25;entryDx=0;entryDy=0;fillColor=#60a917;strokeColor=#2D7600;strokeWidth=3;" parent="1" target="WJQeLxs7-rynea292Qw6-110" edge="1">
          <mxGeometry width="80" relative="1" as="geometry">
            <mxPoint x="1100" y="860" as="sourcePoint" />
            <mxPoint x="320" y="350" as="targetPoint" />
            <Array as="points">
              <mxPoint x="1100" y="320" />
            </Array>
          </mxGeometry>
        </mxCell>
        <mxCell id="WJQeLxs7-rynea292Qw6-138" value="&lt;i&gt;&lt;font face=&quot;Times New Roman&quot; style=&quot;font-size: 20px;&quot;&gt;FWD&lt;/font&gt;&lt;/i&gt;" style="whiteSpace=wrap;html=1;strokeColor=#B85450;strokeWidth=3;fillColor=#E86A65;" parent="1" vertex="1">
          <mxGeometry x="130" y="980" width="40" height="40" as="geometry" />
        </mxCell>
        <mxCell id="WJQeLxs7-rynea292Qw6-141" value="" style="edgeStyle=none;orthogonalLoop=1;jettySize=auto;html=1;strokeWidth=5;fillColor=#f8cecc;strokeColor=#b85450;rounded=0;entryX=0.5;entryY=0;entryDx=0;entryDy=0;" parent="1" edge="1">
          <mxGeometry width="80" relative="1" as="geometry">
            <mxPoint x="150" y="950" as="sourcePoint" />
            <mxPoint x="150" y="1100" as="targetPoint" />
            <Array as="points">
              <mxPoint x="110" y="950" />
              <mxPoint x="110" y="1050" />
              <mxPoint x="150" y="1050" />
            </Array>
          </mxGeometry>
        </mxCell>
        <mxCell id="WJQeLxs7-rynea292Qw6-142" value="" style="edgeStyle=none;orthogonalLoop=1;jettySize=auto;html=1;rounded=0;exitX=1;exitY=0.5;exitDx=0;exitDy=0;" parent="1" source="WJQeLxs7-rynea292Qw6-138" edge="1">
          <mxGeometry width="80" relative="1" as="geometry">
            <mxPoint x="280" y="999.6600000000001" as="sourcePoint" />
            <mxPoint x="330" y="1000" as="targetPoint" />
            <Array as="points" />
          </mxGeometry>
        </mxCell>
        <mxCell id="WJQeLxs7-rynea292Qw6-143" value="" style="edgeStyle=none;orthogonalLoop=1;jettySize=auto;html=1;rounded=0;exitX=1;exitY=0.5;exitDx=0;exitDy=0;" parent="1" edge="1">
          <mxGeometry width="80" relative="1" as="geometry">
            <mxPoint x="170" y="1120" as="sourcePoint" />
            <mxPoint x="330" y="1120" as="targetPoint" />
            <Array as="points" />
          </mxGeometry>
        </mxCell>
        <mxCell id="WJQeLxs7-rynea292Qw6-145" value="" style="edgeStyle=none;orthogonalLoop=1;jettySize=auto;html=1;rounded=0;" parent="1" edge="1">
          <mxGeometry width="80" relative="1" as="geometry">
            <mxPoint x="370" y="1000.3499999999999" as="sourcePoint" />
            <mxPoint x="440" y="1000" as="targetPoint" />
            <Array as="points" />
          </mxGeometry>
        </mxCell>
        <mxCell id="WJQeLxs7-rynea292Qw6-147" value="" style="edgeStyle=none;orthogonalLoop=1;jettySize=auto;html=1;rounded=0;" parent="1" edge="1">
          <mxGeometry width="80" relative="1" as="geometry">
            <mxPoint x="370" y="1120.35" as="sourcePoint" />
            <mxPoint x="440" y="1120" as="targetPoint" />
            <Array as="points" />
          </mxGeometry>
        </mxCell>
        <mxCell id="WJQeLxs7-rynea292Qw6-148" value="" style="edgeStyle=none;orthogonalLoop=1;jettySize=auto;html=1;rounded=0;exitX=1;exitY=0.5;exitDx=0;exitDy=0;entryX=0.004;entryY=0.202;entryDx=0;entryDy=0;entryPerimeter=0;" parent="1" target="WJQeLxs7-rynea292Qw6-68" edge="1">
          <mxGeometry width="80" relative="1" as="geometry">
            <mxPoint x="482" y="1120" as="sourcePoint" />
            <mxPoint x="482" y="1170" as="targetPoint" />
            <Array as="points">
              <mxPoint x="530" y="1120" />
              <mxPoint x="530" y="1150" />
            </Array>
          </mxGeometry>
        </mxCell>
        <mxCell id="WJQeLxs7-rynea292Qw6-149" style="edgeStyle=orthogonalEdgeStyle;rounded=0;orthogonalLoop=1;jettySize=auto;html=1;" parent="1" edge="1">
          <mxGeometry relative="1" as="geometry">
            <mxPoint x="482" y="1000" as="sourcePoint" />
            <mxPoint x="550" y="1000" as="targetPoint" />
          </mxGeometry>
        </mxCell>
        <mxCell id="WJQeLxs7-rynea292Qw6-152" value="" style="edgeStyle=none;orthogonalLoop=1;jettySize=auto;html=1;rounded=0;exitX=0.5;exitY=1;exitDx=0;exitDy=0;" parent="1" source="JT2qfYYeaw6__FSpLCJn-30" edge="1">
          <mxGeometry width="80" relative="1" as="geometry">
            <mxPoint x="1090" y="1139.9999999999998" as="sourcePoint" />
            <mxPoint x="1090" y="2070" as="targetPoint" />
            <Array as="points">
              <mxPoint x="1050" y="2070" />
            </Array>
          </mxGeometry>
        </mxCell>
        <mxCell id="WJQeLxs7-rynea292Qw6-156" value="&lt;i&gt;&lt;font face=&quot;Times New Roman&quot;&gt;T_use_rs&lt;br&gt;&lt;/font&gt;&lt;/i&gt;" style="text;strokeColor=none;align=center;fillColor=none;html=1;verticalAlign=middle;whiteSpace=wrap;rounded=0;" parent="1" vertex="1">
          <mxGeometry x="-190" y="320" width="60" height="20" as="geometry" />
        </mxCell>
        <mxCell id="WJQeLxs7-rynea292Qw6-158" value="" style="edgeStyle=none;orthogonalLoop=1;jettySize=auto;html=1;rounded=0;entryX=0;entryY=0.5;entryDx=0;entryDy=0;fillColor=#60a917;strokeColor=#2D7600;strokeWidth=3;" parent="1" target="WJQeLxs7-rynea292Qw6-110" edge="1">
          <mxGeometry width="80" relative="1" as="geometry">
            <mxPoint x="-260" y="860" as="sourcePoint" />
            <mxPoint x="-150" y="790" as="targetPoint" />
            <Array as="points">
              <mxPoint x="-260" y="340" />
            </Array>
          </mxGeometry>
        </mxCell>
        <mxCell id="WJQeLxs7-rynea292Qw6-159" value="" style="edgeStyle=none;orthogonalLoop=1;jettySize=auto;html=1;rounded=0;entryX=0;entryY=0.75;entryDx=0;entryDy=0;fillColor=#60a917;strokeColor=#2D7600;strokeWidth=3;" parent="1" target="WJQeLxs7-rynea292Qw6-110" edge="1">
          <mxGeometry width="80" relative="1" as="geometry">
            <mxPoint x="-240" y="860" as="sourcePoint" />
            <mxPoint x="-10" y="480" as="targetPoint" />
            <Array as="points">
              <mxPoint x="-240" y="360" />
            </Array>
          </mxGeometry>
        </mxCell>
        <mxCell id="WJQeLxs7-rynea292Qw6-160" value="&lt;i&gt;&lt;font face=&quot;Times New Roman&quot;&gt;T_use_rt&lt;/font&gt;&lt;/i&gt;" style="text;strokeColor=none;align=center;fillColor=none;html=1;verticalAlign=middle;whiteSpace=wrap;rounded=0;" parent="1" vertex="1">
          <mxGeometry x="-190" y="360" width="60" height="20" as="geometry" />
        </mxCell>
        <mxCell id="vuiZizIu7WuuRHwrYj3--1" value="" style="edgeStyle=none;orthogonalLoop=1;jettySize=auto;html=1;rounded=0;entryX=1;entryY=0.75;entryDx=0;entryDy=0;" parent="1" target="WJQeLxs7-rynea292Qw6-43" edge="1">
          <mxGeometry width="80" relative="1" as="geometry">
            <mxPoint x="-900" y="1080" as="sourcePoint" />
            <mxPoint x="-800" y="1000" as="targetPoint" />
            <Array as="points">
              <mxPoint x="-900" y="900" />
            </Array>
          </mxGeometry>
        </mxCell>
        <mxCell id="vuiZizIu7WuuRHwrYj3--2" value="" style="edgeStyle=none;orthogonalLoop=1;jettySize=auto;html=1;rounded=0;" parent="1" edge="1">
          <mxGeometry width="80" relative="1" as="geometry">
            <mxPoint x="930" y="920" as="sourcePoint" />
            <mxPoint x="1410" y="920" as="targetPoint" />
            <Array as="points" />
          </mxGeometry>
        </mxCell>
        <mxCell id="vuiZizIu7WuuRHwrYj3--3" value="" style="edgeStyle=none;orthogonalLoop=1;jettySize=auto;html=1;rounded=0;" parent="1" edge="1">
          <mxGeometry width="80" relative="1" as="geometry">
            <mxPoint x="1450" y="920" as="sourcePoint" />
            <mxPoint x="1620" y="1040" as="targetPoint" />
            <Array as="points">
              <mxPoint x="1540" y="920" />
              <mxPoint x="1540" y="1040" />
            </Array>
          </mxGeometry>
        </mxCell>
        <mxCell id="vuiZizIu7WuuRHwrYj3--4" value="" style="edgeStyle=none;orthogonalLoop=1;jettySize=auto;html=1;rounded=0;exitX=1.068;exitY=0.382;exitDx=0;exitDy=0;exitPerimeter=0;" parent="1" source="WJQeLxs7-rynea292Qw6-83" edge="1">
          <mxGeometry width="80" relative="1" as="geometry">
            <mxPoint x="1480" y="1080" as="sourcePoint" />
            <mxPoint x="1620" y="1080" as="targetPoint" />
            <Array as="points" />
          </mxGeometry>
        </mxCell>
        <mxCell id="vuiZizIu7WuuRHwrYj3--5" value="" style="whiteSpace=wrap;html=1;" parent="1" vertex="1">
          <mxGeometry x="1620" y="1020" width="40" height="160" as="geometry" />
        </mxCell>
        <mxCell id="vuiZizIu7WuuRHwrYj3--6" value="" style="edgeStyle=none;orthogonalLoop=1;jettySize=auto;html=1;rounded=0;entryX=0;entryY=0.75;entryDx=0;entryDy=0;" parent="1" target="WJQeLxs7-rynea292Qw6-22" edge="1">
          <mxGeometry width="80" relative="1" as="geometry">
            <mxPoint x="1660" y="1100" as="sourcePoint" />
            <mxPoint x="1870" y="1120" as="targetPoint" />
            <Array as="points">
              <mxPoint x="1740" y="1100" />
              <mxPoint x="1740" y="1750" />
              <mxPoint x="-190" y="1750" />
              <mxPoint x="-190" y="1140" />
            </Array>
          </mxGeometry>
        </mxCell>
        <mxCell id="vuiZizIu7WuuRHwrYj3--7" value="" style="edgeStyle=none;orthogonalLoop=1;jettySize=auto;html=1;rounded=0;entryX=0;entryY=0.5;entryDx=0;entryDy=0;" parent="1" target="WJQeLxs7-rynea292Qw6-22" edge="1">
          <mxGeometry width="80" relative="1" as="geometry">
            <mxPoint x="1450" y="860" as="sourcePoint" />
            <mxPoint x="-80" y="1500" as="targetPoint" />
            <Array as="points">
              <mxPoint x="1780" y="860" />
              <mxPoint x="1780" y="1800" />
              <mxPoint x="-240" y="1800" />
              <mxPoint x="-240" y="1080" />
            </Array>
          </mxGeometry>
        </mxCell>
        <mxCell id="vuiZizIu7WuuRHwrYj3--8" value="&lt;font face=&quot;Times New Roman&quot;&gt;&lt;span style=&quot;font-size: 20px;&quot;&gt;&lt;i&gt;Write-in Data&lt;br&gt;&lt;/i&gt;&lt;/span&gt;&lt;/font&gt;" style="text;strokeColor=none;align=center;fillColor=none;html=1;verticalAlign=middle;whiteSpace=wrap;rounded=0;" parent="1" vertex="1">
          <mxGeometry x="1168" y="1720" width="160" height="30" as="geometry" />
        </mxCell>
        <mxCell id="vuiZizIu7WuuRHwrYj3--9" value="&lt;font face=&quot;Times New Roman&quot;&gt;&lt;span style=&quot;font-size: 20px;&quot;&gt;&lt;i&gt;Data-Address&lt;br&gt;&lt;/i&gt;&lt;/span&gt;&lt;/font&gt;" style="text;strokeColor=none;align=center;fillColor=none;html=1;verticalAlign=middle;whiteSpace=wrap;rounded=0;" parent="1" vertex="1">
          <mxGeometry x="1168" y="1770" width="160" height="30" as="geometry" />
        </mxCell>
        <mxCell id="vuiZizIu7WuuRHwrYj3--10" value="" style="edgeStyle=none;orthogonalLoop=1;jettySize=auto;html=1;rounded=0;" parent="1" edge="1">
          <mxGeometry width="80" relative="1" as="geometry">
            <mxPoint x="930" y="1519" as="sourcePoint" />
            <mxPoint x="1410" y="1520" as="targetPoint" />
            <Array as="points" />
          </mxGeometry>
        </mxCell>
        <mxCell id="vuiZizIu7WuuRHwrYj3--11" value="" style="edgeStyle=none;orthogonalLoop=1;jettySize=auto;html=1;rounded=0;" parent="1" source="JT2qfYYeaw6__FSpLCJn-45" edge="1">
          <mxGeometry width="80" relative="1" as="geometry">
            <mxPoint x="1180" y="1510" as="sourcePoint" />
            <mxPoint x="1180" y="1950" as="targetPoint" />
            <Array as="points" />
          </mxGeometry>
        </mxCell>
        <mxCell id="vuiZizIu7WuuRHwrYj3--12" value="" style="edgeStyle=none;orthogonalLoop=1;jettySize=auto;html=1;rounded=0;" parent="1" edge="1">
          <mxGeometry width="80" relative="1" as="geometry">
            <mxPoint x="1450" y="1520" as="sourcePoint" />
            <mxPoint x="1560" y="1120" as="targetPoint" />
            <Array as="points">
              <mxPoint x="1500" y="1520" />
              <mxPoint x="1500" y="1120" />
            </Array>
          </mxGeometry>
        </mxCell>
        <mxCell id="vuiZizIu7WuuRHwrYj3--13" value="" style="whiteSpace=wrap;html=1;" parent="1" vertex="1">
          <mxGeometry x="1560" y="1100" width="20" height="100" as="geometry" />
        </mxCell>
        <mxCell id="vuiZizIu7WuuRHwrYj3--14" value="&lt;font style=&quot;font-size: 17px;&quot;&gt;8&lt;/font&gt;" style="ellipse;whiteSpace=wrap;html=1;" parent="1" vertex="1">
          <mxGeometry x="1510" y="1165" width="30" height="30" as="geometry" />
        </mxCell>
        <mxCell id="vuiZizIu7WuuRHwrYj3--16" value="" style="edgeStyle=none;orthogonalLoop=1;jettySize=auto;html=1;rounded=0;" parent="1" edge="1">
          <mxGeometry width="80" relative="1" as="geometry">
            <mxPoint x="1540" y="1179.87" as="sourcePoint" />
            <mxPoint x="1560" y="1179.87" as="targetPoint" />
            <Array as="points" />
          </mxGeometry>
        </mxCell>
        <mxCell id="vuiZizIu7WuuRHwrYj3--17" value="" style="edgeStyle=none;orthogonalLoop=1;jettySize=auto;html=1;rounded=0;exitX=1;exitY=0.5;exitDx=0;exitDy=0;" parent="1" source="vuiZizIu7WuuRHwrYj3--13" edge="1">
          <mxGeometry width="80" relative="1" as="geometry">
            <mxPoint x="1600" y="1120" as="sourcePoint" />
            <mxPoint x="1620" y="1119.7399999999998" as="targetPoint" />
            <Array as="points">
              <mxPoint x="1590" y="1150" />
              <mxPoint x="1590" y="1120" />
            </Array>
          </mxGeometry>
        </mxCell>
        <mxCell id="vuiZizIu7WuuRHwrYj3--18" value="" style="edgeStyle=none;orthogonalLoop=1;jettySize=auto;html=1;strokeWidth=5;fillColor=#f8cecc;strokeColor=#b85450;rounded=0;" parent="1" edge="1">
          <mxGeometry width="80" relative="1" as="geometry">
            <mxPoint x="1350" y="920" as="sourcePoint" />
            <mxPoint x="1350" y="790" as="targetPoint" />
            <Array as="points" />
          </mxGeometry>
        </mxCell>
        <mxCell id="vuiZizIu7WuuRHwrYj3--19" value="" style="edgeStyle=none;orthogonalLoop=1;jettySize=auto;html=1;strokeWidth=5;fillColor=#f8cecc;strokeColor=#b85450;rounded=0;exitX=0.5;exitY=0;exitDx=0;exitDy=0;" parent="1" source="vuiZizIu7WuuRHwrYj3--23" edge="1">
          <mxGeometry width="80" relative="1" as="geometry">
            <mxPoint x="1380" y="1270" as="sourcePoint" />
            <mxPoint x="1320" y="790" as="targetPoint" />
            <Array as="points">
              <mxPoint x="1360" y="960" />
              <mxPoint x="1320" y="960" />
            </Array>
          </mxGeometry>
        </mxCell>
        <mxCell id="vuiZizIu7WuuRHwrYj3--20" value="" style="whiteSpace=wrap;html=1;strokeWidth=3;strokeColor=#B85450;" parent="1" vertex="1">
          <mxGeometry x="1270" y="760" width="99" height="30" as="geometry" />
        </mxCell>
        <mxCell id="vuiZizIu7WuuRHwrYj3--21" value="" style="edgeStyle=none;orthogonalLoop=1;jettySize=auto;html=1;strokeWidth=5;fillColor=#f8cecc;strokeColor=#b85450;rounded=0;" parent="1" edge="1">
          <mxGeometry width="80" relative="1" as="geometry">
            <mxPoint x="1334" y="760" as="sourcePoint" />
            <mxPoint x="1334" y="717" as="targetPoint" />
            <Array as="points" />
          </mxGeometry>
        </mxCell>
        <mxCell id="vuiZizIu7WuuRHwrYj3--22" value="" style="edgeStyle=none;orthogonalLoop=1;jettySize=auto;html=1;strokeWidth=5;fillColor=#f8cecc;strokeColor=#b85450;rounded=0;" parent="1" edge="1">
          <mxGeometry width="80" relative="1" as="geometry">
            <mxPoint x="1660" y="860" as="sourcePoint" />
            <mxPoint x="1660" y="640" as="targetPoint" />
            <Array as="points" />
          </mxGeometry>
        </mxCell>
        <mxCell id="vuiZizIu7WuuRHwrYj3--23" value="" style="whiteSpace=wrap;html=1;strokeColor=#B85450;strokeWidth=3;" parent="1" vertex="1">
          <mxGeometry x="1330" y="1130" width="60" height="20" as="geometry" />
        </mxCell>
        <mxCell id="jmKshsy80a_5EbKvajJt-29" style="edgeStyle=orthogonalEdgeStyle;rounded=0;orthogonalLoop=1;jettySize=auto;html=1;entryX=0.75;entryY=1;entryDx=0;entryDy=0;" parent="1" source="vuiZizIu7WuuRHwrYj3--24" target="vuiZizIu7WuuRHwrYj3--23" edge="1">
          <mxGeometry relative="1" as="geometry" />
        </mxCell>
        <mxCell id="vuiZizIu7WuuRHwrYj3--24" value="&lt;font style=&quot;font-size: 17px;&quot;&gt;8&lt;/font&gt;" style="ellipse;whiteSpace=wrap;html=1;" parent="1" vertex="1">
          <mxGeometry x="1369" y="1449" width="30" height="30" as="geometry" />
        </mxCell>
        <mxCell id="vuiZizIu7WuuRHwrYj3--27" value="" style="edgeStyle=none;orthogonalLoop=1;jettySize=auto;html=1;strokeWidth=5;fillColor=#f8cecc;strokeColor=#b85450;rounded=0;" parent="1" edge="1">
          <mxGeometry width="80" relative="1" as="geometry">
            <mxPoint x="1349" y="1521" as="sourcePoint" />
            <mxPoint x="1350" y="1150" as="targetPoint" />
            <Array as="points" />
          </mxGeometry>
        </mxCell>
        <mxCell id="xKPDgl2L5MfhOqihVoRK-1" value="" style="edgeStyle=none;orthogonalLoop=1;jettySize=auto;html=1;rounded=0;exitX=0.5;exitY=1;exitDx=0;exitDy=0;" parent="1" source="WJQeLxs7-rynea292Qw6-33" edge="1">
          <mxGeometry width="80" relative="1" as="geometry">
            <mxPoint x="-430" y="890" as="sourcePoint" />
            <mxPoint x="-360" y="860" as="targetPoint" />
            <Array as="points">
              <mxPoint x="-500" y="860" />
            </Array>
          </mxGeometry>
        </mxCell>
        <mxCell id="xKPDgl2L5MfhOqihVoRK-2" value="" style="edgeStyle=none;orthogonalLoop=1;jettySize=auto;html=1;rounded=0;entryX=0;entryY=0.381;entryDx=0;entryDy=0;entryPerimeter=0;" parent="1" target="WJQeLxs7-rynea292Qw6-28" edge="1">
          <mxGeometry width="80" relative="1" as="geometry">
            <mxPoint x="-600" y="1079" as="sourcePoint" />
            <mxPoint x="-420" y="1080" as="targetPoint" />
            <Array as="points" />
          </mxGeometry>
        </mxCell>
        <mxCell id="JT2qfYYeaw6__FSpLCJn-1" value="" style="edgeStyle=none;orthogonalLoop=1;jettySize=auto;html=1;rounded=0;" parent="1" edge="1">
          <mxGeometry width="80" relative="1" as="geometry">
            <mxPoint x="-900" y="1080" as="sourcePoint" />
            <mxPoint x="-360" y="1360" as="targetPoint" />
            <Array as="points">
              <mxPoint x="-900" y="1360" />
            </Array>
          </mxGeometry>
        </mxCell>
        <mxCell id="JT2qfYYeaw6__FSpLCJn-2" value="" style="ellipse;whiteSpace=wrap;html=1;fillColor=#FFFFFF;" parent="1" vertex="1">
          <mxGeometry x="-903" y="1077" width="6" height="6" as="geometry" />
        </mxCell>
        <mxCell id="JT2qfYYeaw6__FSpLCJn-4" value="&lt;i style=&quot;font-size: 17px;&quot;&gt;&lt;font style=&quot;font-size: 17px;&quot; face=&quot;Times New Roman&quot;&gt;Tnew--&lt;br&gt;through every level&lt;br&gt;&lt;/font&gt;&lt;/i&gt;" style="text;strokeColor=none;align=center;fillColor=none;html=1;verticalAlign=middle;whiteSpace=wrap;rounded=0;" parent="1" vertex="1">
          <mxGeometry x="-510" y="840" width="150" height="40" as="geometry" />
        </mxCell>
        <mxCell id="JT2qfYYeaw6__FSpLCJn-5" value="" style="ellipse;whiteSpace=wrap;html=1;fillColor=#FFFFFF;" parent="1" vertex="1">
          <mxGeometry x="-283" y="1077" width="6" height="6" as="geometry" />
        </mxCell>
        <mxCell id="JT2qfYYeaw6__FSpLCJn-8" value="&lt;i&gt;&lt;font style=&quot;font-size: 20px;&quot; face=&quot;Times New Roman&quot;&gt;Ra&lt;/font&gt;&lt;/i&gt;" style="text;strokeColor=none;align=center;fillColor=none;html=1;verticalAlign=middle;whiteSpace=wrap;rounded=0;" parent="1" vertex="1">
          <mxGeometry x="-897" y="540" width="60" height="20" as="geometry" />
        </mxCell>
        <mxCell id="JT2qfYYeaw6__FSpLCJn-9" value="&lt;i&gt;&lt;font style=&quot;font-size: 20px;&quot; face=&quot;Times New Roman&quot;&gt;Cmp&lt;/font&gt;&lt;/i&gt;" style="text;strokeColor=none;align=center;fillColor=none;html=1;verticalAlign=middle;whiteSpace=wrap;rounded=0;" parent="1" vertex="1">
          <mxGeometry x="-897" y="620" width="60" height="20" as="geometry" />
        </mxCell>
        <mxCell id="JT2qfYYeaw6__FSpLCJn-10" value="&lt;i&gt;&lt;font style=&quot;font-size: 20px;&quot; face=&quot;Times New Roman&quot;&gt;Imm26&lt;/font&gt;&lt;/i&gt;" style="text;strokeColor=none;align=center;fillColor=none;html=1;verticalAlign=middle;whiteSpace=wrap;rounded=0;" parent="1" vertex="1">
          <mxGeometry x="-897" y="580" width="60" height="20" as="geometry" />
        </mxCell>
        <mxCell id="JT2qfYYeaw6__FSpLCJn-12" value="" style="edgeStyle=none;orthogonalLoop=1;jettySize=auto;html=1;rounded=0;entryX=1;entryY=0.25;entryDx=0;entryDy=0;" parent="1" target="WJQeLxs7-rynea292Qw6-43" edge="1">
          <mxGeometry width="80" relative="1" as="geometry">
            <mxPoint x="-220" y="860" as="sourcePoint" />
            <mxPoint x="-120" y="840" as="targetPoint" />
            <Array as="points">
              <mxPoint x="-220" y="680" />
              <mxPoint x="-920" y="680" />
              <mxPoint x="-920" y="860" />
            </Array>
          </mxGeometry>
        </mxCell>
        <mxCell id="JT2qfYYeaw6__FSpLCJn-13" value="&lt;i&gt;&lt;font style=&quot;font-size: 20px;&quot; face=&quot;Times New Roman&quot;&gt;Ctrl&lt;br&gt;&lt;/font&gt;&lt;/i&gt;" style="text;strokeColor=none;align=center;fillColor=none;html=1;verticalAlign=middle;whiteSpace=wrap;rounded=0;" parent="1" vertex="1">
          <mxGeometry x="-897" y="660" width="60" height="20" as="geometry" />
        </mxCell>
        <mxCell id="JT2qfYYeaw6__FSpLCJn-14" value="&lt;font face=&quot;Times New Roman&quot;&gt;&lt;span style=&quot;font-size: 20px;&quot;&gt;&lt;i&gt;Write-in Data&lt;br&gt;&lt;/i&gt;&lt;/span&gt;&lt;/font&gt;" style="text;strokeColor=none;align=center;fillColor=none;html=1;verticalAlign=middle;whiteSpace=wrap;rounded=0;" parent="1" vertex="1">
          <mxGeometry x="-60" y="1720" width="160" height="30" as="geometry" />
        </mxCell>
        <mxCell id="JT2qfYYeaw6__FSpLCJn-15" value="&lt;font face=&quot;Times New Roman&quot;&gt;&lt;span style=&quot;font-size: 20px;&quot;&gt;&lt;i&gt;Data-Address&lt;br&gt;&lt;/i&gt;&lt;/span&gt;&lt;/font&gt;" style="text;strokeColor=none;align=center;fillColor=none;html=1;verticalAlign=middle;whiteSpace=wrap;rounded=0;" parent="1" vertex="1">
          <mxGeometry x="-60" y="1770" width="160" height="30" as="geometry" />
        </mxCell>
        <mxCell id="JT2qfYYeaw6__FSpLCJn-16" value="&lt;i&gt;&lt;font style=&quot;font-size: 20px;&quot; face=&quot;Times New Roman&quot;&gt;Write Data&lt;/font&gt;&lt;/i&gt;" style="text;strokeColor=none;align=center;fillColor=none;html=1;verticalAlign=middle;whiteSpace=wrap;rounded=0;" parent="1" vertex="1">
          <mxGeometry x="1150" y="760" width="100" height="30" as="geometry" />
        </mxCell>
        <mxCell id="JT2qfYYeaw6__FSpLCJn-17" value="&lt;i&gt;&lt;font style=&quot;font-size: 20px;&quot; face=&quot;Times New Roman&quot;&gt;Write Data&lt;/font&gt;&lt;/i&gt;" style="text;strokeColor=none;align=center;fillColor=none;html=1;verticalAlign=middle;whiteSpace=wrap;rounded=0;" parent="1" vertex="1">
          <mxGeometry x="1640" y="1245" width="100" height="30" as="geometry" />
        </mxCell>
        <mxCell id="JT2qfYYeaw6__FSpLCJn-18" value="&lt;font size=&quot;1&quot; face=&quot;Times New Roman&quot;&gt;&lt;i style=&quot;font-size: 20px;&quot;&gt;d_rd1&lt;/i&gt;&lt;/font&gt;" style="text;strokeColor=none;align=center;fillColor=none;html=1;verticalAlign=middle;whiteSpace=wrap;rounded=0;" parent="1" vertex="1">
          <mxGeometry x="180" y="1000" width="60" height="20" as="geometry" />
        </mxCell>
        <mxCell id="JT2qfYYeaw6__FSpLCJn-19" value="&lt;font size=&quot;1&quot; face=&quot;Times New Roman&quot;&gt;&lt;i style=&quot;font-size: 20px;&quot;&gt;d_rd2&lt;/i&gt;&lt;/font&gt;" style="text;strokeColor=none;align=center;fillColor=none;html=1;verticalAlign=middle;whiteSpace=wrap;rounded=0;" parent="1" vertex="1">
          <mxGeometry x="180" y="1120" width="60" height="20" as="geometry" />
        </mxCell>
        <mxCell id="JT2qfYYeaw6__FSpLCJn-20" value="&lt;font size=&quot;1&quot; face=&quot;Times New Roman&quot;&gt;&lt;i style=&quot;font-size: 20px;&quot;&gt;d_grf_rd1&lt;/i&gt;&lt;/font&gt;" style="text;strokeColor=none;align=center;fillColor=none;html=1;verticalAlign=middle;whiteSpace=wrap;rounded=0;" parent="1" vertex="1">
          <mxGeometry x="10" y="1000" width="80" height="20" as="geometry" />
        </mxCell>
        <mxCell id="JT2qfYYeaw6__FSpLCJn-21" value="&lt;font size=&quot;1&quot; face=&quot;Times New Roman&quot;&gt;&lt;i style=&quot;font-size: 20px;&quot;&gt;d_grf_rd2&lt;/i&gt;&lt;/font&gt;" style="text;strokeColor=none;align=center;fillColor=none;html=1;verticalAlign=middle;whiteSpace=wrap;rounded=0;" parent="1" vertex="1">
          <mxGeometry x="10" y="1120" width="80" height="20" as="geometry" />
        </mxCell>
        <mxCell id="JT2qfYYeaw6__FSpLCJn-22" value="&lt;font face=&quot;Times New Roman&quot; style=&quot;font-size: 20px;&quot;&gt;&lt;i&gt;EXT&lt;/i&gt;&lt;/font&gt;" style="whiteSpace=wrap;html=1;" parent="1" vertex="1">
          <mxGeometry x="470" y="1200" width="40" height="20" as="geometry" />
        </mxCell>
        <mxCell id="JT2qfYYeaw6__FSpLCJn-24" value="" style="edgeStyle=none;orthogonalLoop=1;jettySize=auto;html=1;rounded=0;" parent="1" edge="1">
          <mxGeometry width="80" relative="1" as="geometry">
            <mxPoint x="511" y="1209.79" as="sourcePoint" />
            <mxPoint x="551" y="1209.79" as="targetPoint" />
            <Array as="points" />
          </mxGeometry>
        </mxCell>
        <mxCell id="JT2qfYYeaw6__FSpLCJn-28" value="&lt;font face=&quot;Times New Roman&quot;&gt;&lt;span style=&quot;font-size: 20px;&quot;&gt;&lt;i&gt;d_imm16(stored in d_ins)&lt;/i&gt;&lt;/span&gt;&lt;/font&gt;" style="text;strokeColor=none;align=center;fillColor=none;html=1;verticalAlign=middle;whiteSpace=wrap;rounded=0;" parent="1" vertex="1">
          <mxGeometry x="60" y="1280" width="240" height="20" as="geometry" />
        </mxCell>
        <mxCell id="JT2qfYYeaw6__FSpLCJn-29" value="&lt;i&gt;&lt;font style=&quot;font-size: 20px;&quot; face=&quot;Times New Roman&quot;&gt;m_pc&lt;/font&gt;&lt;/i&gt;" style="text;strokeColor=none;align=center;fillColor=none;html=1;verticalAlign=middle;whiteSpace=wrap;rounded=0;" parent="1" vertex="1">
          <mxGeometry x="1191" y="1530" width="40" height="19" as="geometry" />
        </mxCell>
        <mxCell id="JT2qfYYeaw6__FSpLCJn-30" value="&lt;i&gt;&lt;font face=&quot;Times New Roman&quot; style=&quot;font-size: 20px;&quot;&gt;FWD&lt;/font&gt;&lt;/i&gt;" style="whiteSpace=wrap;html=1;strokeColor=#B85450;strokeWidth=3;fillColor=#E86A65;" parent="1" vertex="1">
          <mxGeometry x="1030" y="1120" width="40" height="40" as="geometry" />
        </mxCell>
        <mxCell id="JT2qfYYeaw6__FSpLCJn-31" value="&lt;i&gt;&lt;font face=&quot;Times New Roman&quot; style=&quot;font-size: 20px;&quot;&gt;FWD&lt;/font&gt;&lt;/i&gt;" style="whiteSpace=wrap;html=1;strokeColor=#B85450;strokeWidth=3;fillColor=#E86A65;" parent="1" vertex="1">
          <mxGeometry x="440" y="980" width="40" height="40" as="geometry" />
        </mxCell>
        <mxCell id="JT2qfYYeaw6__FSpLCJn-32" value="&lt;i&gt;&lt;font face=&quot;Times New Roman&quot; style=&quot;font-size: 20px;&quot;&gt;FWD&lt;/font&gt;&lt;/i&gt;" style="whiteSpace=wrap;html=1;strokeColor=#B85450;strokeWidth=3;fillColor=#E86A65;" parent="1" vertex="1">
          <mxGeometry x="440" y="1100" width="40" height="40" as="geometry" />
        </mxCell>
        <mxCell id="JT2qfYYeaw6__FSpLCJn-33" value="&lt;i&gt;&lt;font face=&quot;Times New Roman&quot; style=&quot;font-size: 20px;&quot;&gt;FWD&lt;/font&gt;&lt;/i&gt;" style="whiteSpace=wrap;html=1;strokeColor=#B85450;strokeWidth=3;fillColor=#E86A65;" parent="1" vertex="1">
          <mxGeometry x="130" y="1100" width="40" height="40" as="geometry" />
        </mxCell>
        <mxCell id="JT2qfYYeaw6__FSpLCJn-35" value="&lt;font size=&quot;1&quot; face=&quot;Times New Roman&quot;&gt;&lt;i style=&quot;font-size: 16px;&quot;&gt;e_reg_rd1&lt;/i&gt;&lt;/font&gt;" style="text;strokeColor=none;align=center;fillColor=none;html=1;verticalAlign=middle;whiteSpace=wrap;rounded=0;" parent="1" vertex="1">
          <mxGeometry x="374" y="1002" width="60" height="20" as="geometry" />
        </mxCell>
        <mxCell id="JT2qfYYeaw6__FSpLCJn-36" value="&lt;font size=&quot;1&quot; face=&quot;Times New Roman&quot;&gt;&lt;i style=&quot;font-size: 16px;&quot;&gt;e_reg_rd2&lt;br&gt;&lt;br&gt;&lt;/i&gt;&lt;/font&gt;" style="text;strokeColor=none;align=center;fillColor=none;html=1;verticalAlign=middle;whiteSpace=wrap;rounded=0;" parent="1" vertex="1">
          <mxGeometry x="374" y="1125" width="60" height="20" as="geometry" />
        </mxCell>
        <mxCell id="JT2qfYYeaw6__FSpLCJn-37" value="&lt;font size=&quot;1&quot; face=&quot;Times New Roman&quot;&gt;&lt;i style=&quot;font-size: 20px;&quot;&gt;ctrl&amp;nbsp;&amp;amp; ins&lt;/i&gt;&lt;/font&gt;" style="text;strokeColor=none;align=center;fillColor=none;html=1;verticalAlign=middle;whiteSpace=wrap;rounded=0;" parent="1" vertex="1">
          <mxGeometry x="-130" y="860" width="90" height="20" as="geometry" />
        </mxCell>
        <mxCell id="JT2qfYYeaw6__FSpLCJn-38" value="&lt;font size=&quot;1&quot; face=&quot;Times New Roman&quot;&gt;&lt;i style=&quot;font-size: 20px;&quot;&gt;ctrl&amp;nbsp;&amp;amp; ins&lt;/i&gt;&lt;/font&gt;" style="text;strokeColor=none;align=center;fillColor=none;html=1;verticalAlign=middle;whiteSpace=wrap;rounded=0;" parent="1" vertex="1">
          <mxGeometry x="612" y="863" width="90" height="20" as="geometry" />
        </mxCell>
        <mxCell id="JT2qfYYeaw6__FSpLCJn-39" value="" style="edgeStyle=none;orthogonalLoop=1;jettySize=auto;html=1;rounded=0;" parent="1" edge="1">
          <mxGeometry width="80" relative="1" as="geometry">
            <mxPoint x="530" y="1120" as="sourcePoint" />
            <mxPoint x="890" y="1140" as="targetPoint" />
            <Array as="points">
              <mxPoint x="530" y="1090" />
              <mxPoint x="600" y="1090" />
              <mxPoint x="600" y="1220" />
              <mxPoint x="860" y="1220" />
              <mxPoint x="860" y="1140" />
            </Array>
          </mxGeometry>
        </mxCell>
        <mxCell id="JT2qfYYeaw6__FSpLCJn-40" value="" style="ellipse;whiteSpace=wrap;html=1;fillColor=#FFFFFF;" parent="1" vertex="1">
          <mxGeometry x="527" y="1117" width="6" height="6" as="geometry" />
        </mxCell>
        <mxCell id="JT2qfYYeaw6__FSpLCJn-41" value="&lt;font face=&quot;Times New Roman&quot; style=&quot;font-size: 20px;&quot;&gt;&lt;i style=&quot;font-size: 20px;&quot;&gt;e_rd2&lt;/i&gt;&lt;/font&gt;" style="text;strokeColor=none;align=center;fillColor=none;html=1;verticalAlign=middle;whiteSpace=wrap;rounded=0;fontSize=20;" parent="1" vertex="1">
          <mxGeometry x="671" y="1200" width="55" height="20" as="geometry" />
        </mxCell>
        <mxCell id="JT2qfYYeaw6__FSpLCJn-42" value="" style="ellipse;whiteSpace=wrap;html=1;fillColor=#FFFFFF;" parent="1" vertex="1">
          <mxGeometry x="1116" y="917" width="6" height="6" as="geometry" />
        </mxCell>
        <mxCell id="JT2qfYYeaw6__FSpLCJn-43" value="&lt;font face=&quot;Times New Roman&quot; style=&quot;font-size: 20px;&quot;&gt;&lt;i style=&quot;font-size: 20px;&quot;&gt;m_alu&lt;br&gt;&lt;/i&gt;&lt;/font&gt;" style="text;strokeColor=none;align=center;fillColor=none;html=1;verticalAlign=middle;whiteSpace=wrap;rounded=0;fontSize=20;" parent="1" vertex="1">
          <mxGeometry x="932" y="923" width="55" height="20" as="geometry" />
        </mxCell>
        <mxCell id="JT2qfYYeaw6__FSpLCJn-44" value="&lt;font face=&quot;Times New Roman&quot; style=&quot;font-size: 20px;&quot;&gt;&lt;i style=&quot;font-size: 20px;&quot;&gt;m_reg_rd2&lt;br&gt;&lt;/i&gt;&lt;/font&gt;" style="text;strokeColor=none;align=center;fillColor=none;html=1;verticalAlign=middle;whiteSpace=wrap;rounded=0;fontSize=20;" parent="1" vertex="1">
          <mxGeometry x="930" y="1145" width="95" height="15" as="geometry" />
        </mxCell>
        <mxCell id="JT2qfYYeaw6__FSpLCJn-45" value="" style="ellipse;whiteSpace=wrap;html=1;fillColor=#FFFFFF;" parent="1" vertex="1">
          <mxGeometry x="1177" y="1516" width="6" height="6" as="geometry" />
        </mxCell>
        <mxCell id="JT2qfYYeaw6__FSpLCJn-46" value="&lt;font face=&quot;Times New Roman&quot; style=&quot;font-size: 20px;&quot;&gt;&lt;i style=&quot;font-size: 20px;&quot;&gt;m_rd2&lt;br&gt;&lt;/i&gt;&lt;/font&gt;" style="text;strokeColor=none;align=center;fillColor=none;html=1;verticalAlign=middle;whiteSpace=wrap;rounded=0;fontSize=20;" parent="1" vertex="1">
          <mxGeometry x="987" y="2060" width="55" height="20" as="geometry" />
        </mxCell>
        <mxCell id="JT2qfYYeaw6__FSpLCJn-47" value="&lt;font face=&quot;Times New Roman&quot; style=&quot;font-size: 20px;&quot;&gt;&lt;i style=&quot;font-size: 20px;&quot;&gt;m_alu&lt;br&gt;&lt;/i&gt;&lt;/font&gt;" style="text;strokeColor=none;align=center;fillColor=none;html=1;verticalAlign=middle;whiteSpace=wrap;rounded=0;fontSize=20;" parent="1" vertex="1">
          <mxGeometry x="1345" y="925" width="55" height="20" as="geometry" />
        </mxCell>
        <mxCell id="JT2qfYYeaw6__FSpLCJn-49" value="&lt;font face=&quot;Times New Roman&quot; style=&quot;font-size: 20px;&quot;&gt;&lt;i style=&quot;font-size: 20px;&quot;&gt;m_dm_out&lt;br&gt;&lt;/i&gt;&lt;/font&gt;" style="text;strokeColor=none;align=center;fillColor=none;html=1;verticalAlign=middle;whiteSpace=wrap;rounded=0;fontSize=20;" parent="1" vertex="1">
          <mxGeometry x="1300" y="2090" width="77" height="20" as="geometry" />
        </mxCell>
        <mxCell id="bOlZKXwhMdPD1XxubPcO-1" value="" style="edgeStyle=none;orthogonalLoop=1;jettySize=auto;html=1;rounded=0;fillColor=#1ba1e2;strokeColor=#006EAF;strokeWidth=3;" parent="1" edge="1">
          <mxGeometry width="80" relative="1" as="geometry">
            <mxPoint x="520" y="1000" as="sourcePoint" />
            <mxPoint x="660" y="1370" as="targetPoint" />
            <Array as="points">
              <mxPoint x="520" y="1080" />
              <mxPoint x="640" y="1080" />
              <mxPoint x="640" y="1370" />
            </Array>
          </mxGeometry>
        </mxCell>
        <mxCell id="bOlZKXwhMdPD1XxubPcO-3" value="" style="edgeStyle=none;orthogonalLoop=1;jettySize=auto;html=1;rounded=0;fillColor=#1ba1e2;strokeColor=#006EAF;strokeWidth=3;" parent="1" edge="1">
          <mxGeometry width="80" relative="1" as="geometry">
            <mxPoint x="600" y="1220" as="sourcePoint" />
            <mxPoint x="660" y="1390" as="targetPoint" />
            <Array as="points">
              <mxPoint x="600" y="1390" />
            </Array>
          </mxGeometry>
        </mxCell>
        <mxCell id="bOlZKXwhMdPD1XxubPcO-4" value="&lt;font face=&quot;Times New Roman&quot;&gt;&lt;span style=&quot;font-size: 16px;&quot;&gt;&lt;i&gt;CAL&lt;br&gt;Unit&lt;/i&gt;&lt;/span&gt;&lt;/font&gt;" style="whiteSpace=wrap;html=1;fillColor=#1ba1e2;fontColor=#ffffff;strokeColor=#006EAF;strokeWidth=3;" parent="1" vertex="1">
          <mxGeometry x="680" y="1350" width="60" height="60" as="geometry" />
        </mxCell>
        <mxCell id="bOlZKXwhMdPD1XxubPcO-7" value="&lt;i&gt;&lt;font face=&quot;Times New Roman&quot; style=&quot;font-size: 16px;&quot;&gt;HI&lt;/font&gt;&lt;/i&gt;" style="whiteSpace=wrap;html=1;fillColor=#1ba1e2;fontColor=#ffffff;strokeColor=#006EAF;strokeWidth=3;" parent="1" vertex="1">
          <mxGeometry x="760" y="1320" width="40" height="40" as="geometry" />
        </mxCell>
        <mxCell id="bOlZKXwhMdPD1XxubPcO-9" value="&lt;i&gt;&lt;font face=&quot;Times New Roman&quot; style=&quot;font-size: 16px;&quot;&gt;LO&lt;/font&gt;&lt;/i&gt;" style="whiteSpace=wrap;html=1;fillColor=#1ba1e2;fontColor=#ffffff;strokeColor=#006EAF;strokeWidth=3;" parent="1" vertex="1">
          <mxGeometry x="760" y="1400" width="40" height="40" as="geometry" />
        </mxCell>
        <mxCell id="bOlZKXwhMdPD1XxubPcO-11" value="&lt;font face=&quot;Times New Roman&quot; style=&quot;font-size: 16px;&quot;&gt;&lt;i&gt;e_ext_op&lt;/i&gt;&lt;/font&gt;" style="text;strokeColor=none;align=center;fillColor=none;html=1;verticalAlign=middle;whiteSpace=wrap;rounded=0;" parent="1" vertex="1">
          <mxGeometry x="460" y="1250" width="60" height="20" as="geometry" />
        </mxCell>
        <mxCell id="bOlZKXwhMdPD1XxubPcO-12" value="" style="edgeStyle=none;orthogonalLoop=1;jettySize=auto;html=1;rounded=0;exitX=0.5;exitY=0;exitDx=0;exitDy=0;entryX=0.5;entryY=1;entryDx=0;entryDy=0;" parent="1" source="bOlZKXwhMdPD1XxubPcO-11" target="JT2qfYYeaw6__FSpLCJn-22" edge="1">
          <mxGeometry width="80" relative="1" as="geometry">
            <mxPoint x="500" y="1230" as="sourcePoint" />
            <mxPoint x="580" y="1230" as="targetPoint" />
            <Array as="points" />
          </mxGeometry>
        </mxCell>
        <mxCell id="bOlZKXwhMdPD1XxubPcO-13" value="&lt;font face=&quot;Times New Roman&quot; style=&quot;font-size: 16px;&quot;&gt;&lt;i&gt;e_alu_op&lt;/i&gt;&lt;/font&gt;" style="text;strokeColor=none;align=center;fillColor=none;html=1;verticalAlign=middle;whiteSpace=wrap;rounded=0;" parent="1" vertex="1">
          <mxGeometry x="690" y="920" width="60" height="20" as="geometry" />
        </mxCell>
        <mxCell id="bOlZKXwhMdPD1XxubPcO-14" value="" style="edgeStyle=none;orthogonalLoop=1;jettySize=auto;html=1;rounded=0;" parent="1" edge="1">
          <mxGeometry width="80" relative="1" as="geometry">
            <mxPoint x="720" y="940" as="sourcePoint" />
            <mxPoint x="720" y="980" as="targetPoint" />
            <Array as="points" />
          </mxGeometry>
        </mxCell>
        <mxCell id="bOlZKXwhMdPD1XxubPcO-15" value="&lt;font face=&quot;Times New Roman&quot; style=&quot;font-size: 16px;&quot;&gt;&lt;i&gt;e_md_op&lt;/i&gt;&lt;/font&gt;" style="text;strokeColor=none;align=center;fillColor=none;html=1;verticalAlign=middle;whiteSpace=wrap;rounded=0;" parent="1" vertex="1">
          <mxGeometry x="690" y="1479" width="60" height="20" as="geometry" />
        </mxCell>
        <mxCell id="bOlZKXwhMdPD1XxubPcO-16" value="" style="edgeStyle=none;orthogonalLoop=1;jettySize=auto;html=1;rounded=0;exitX=0.5;exitY=0;exitDx=0;exitDy=0;" parent="1" source="bOlZKXwhMdPD1XxubPcO-15" edge="1">
          <mxGeometry width="80" relative="1" as="geometry">
            <mxPoint x="719.7" y="1419" as="sourcePoint" />
            <mxPoint x="719.7" y="1459" as="targetPoint" />
            <Array as="points" />
          </mxGeometry>
        </mxCell>
        <mxCell id="bOlZKXwhMdPD1XxubPcO-17" value="" style="edgeStyle=none;orthogonalLoop=1;jettySize=auto;html=1;rounded=0;fillColor=#1ba1e2;strokeColor=#006EAF;strokeWidth=3;" parent="1" edge="1">
          <mxGeometry width="80" relative="1" as="geometry">
            <mxPoint x="820" y="1340" as="sourcePoint" />
            <mxPoint x="850" y="1340" as="targetPoint" />
            <Array as="points" />
          </mxGeometry>
        </mxCell>
        <mxCell id="bOlZKXwhMdPD1XxubPcO-18" value="" style="edgeStyle=none;orthogonalLoop=1;jettySize=auto;html=1;rounded=0;fillColor=#1ba1e2;strokeColor=#006EAF;strokeWidth=3;" parent="1" edge="1">
          <mxGeometry width="80" relative="1" as="geometry">
            <mxPoint x="820" y="1420" as="sourcePoint" />
            <mxPoint x="850" y="1420" as="targetPoint" />
            <Array as="points" />
          </mxGeometry>
        </mxCell>
        <mxCell id="bOlZKXwhMdPD1XxubPcO-22" value="" style="edgeStyle=none;orthogonalLoop=1;jettySize=auto;html=1;rounded=0;endArrow=none;endFill=0;fillColor=#1ba1e2;strokeColor=#006EAF;strokeWidth=3;" parent="1" edge="1">
          <mxGeometry width="80" relative="1" as="geometry">
            <mxPoint x="660" y="1460" as="sourcePoint" />
            <mxPoint x="660" y="1460" as="targetPoint" />
            <Array as="points">
              <mxPoint x="660" y="1300" />
              <mxPoint x="820" y="1300" />
              <mxPoint x="820" y="1460" />
            </Array>
          </mxGeometry>
        </mxCell>
        <mxCell id="bOlZKXwhMdPD1XxubPcO-24" value="&lt;font face=&quot;Times New Roman&quot; style=&quot;font-size: 20px;&quot;&gt;&lt;i style=&quot;font-size: 20px;&quot;&gt;MDU&lt;/i&gt;&lt;/font&gt;" style="text;strokeColor=#006EAF;align=center;fillColor=#1ba1e2;html=1;verticalAlign=middle;whiteSpace=wrap;rounded=0;fontSize=20;fontColor=#ffffff;strokeWidth=3;" parent="1" vertex="1">
          <mxGeometry x="663.5" y="1300" width="55" height="20" as="geometry" />
        </mxCell>
        <mxCell id="5qenHVvfJdvpFhqj9L7U-1" value="" style="edgeStyle=none;orthogonalLoop=1;jettySize=auto;html=1;rounded=0;fillColor=#1ba1e2;strokeColor=#006EAF;strokeWidth=3;entryX=0.75;entryY=0;entryDx=0;entryDy=0;" parent="1" target="WJQeLxs7-rynea292Qw6-29" edge="1">
          <mxGeometry width="80" relative="1" as="geometry">
            <mxPoint x="800" y="1300" as="sourcePoint" />
            <mxPoint x="420" y="570" as="targetPoint" />
            <Array as="points">
              <mxPoint x="800" y="1260" />
              <mxPoint x="840" y="1260" />
              <mxPoint x="840" y="520" />
              <mxPoint x="360" y="520" />
            </Array>
          </mxGeometry>
        </mxCell>
        <mxCell id="jmKshsy80a_5EbKvajJt-1" value="" style="edgeStyle=none;orthogonalLoop=1;jettySize=auto;html=1;rounded=0;entryX=0;entryY=0.5;entryDx=0;entryDy=0;" parent="1" target="WJQeLxs7-rynea292Qw6-19" edge="1">
          <mxGeometry width="80" relative="1" as="geometry">
            <mxPoint x="-900" y="1360" as="sourcePoint" />
            <mxPoint x="-740" y="1470" as="targetPoint" />
            <Array as="points">
              <mxPoint x="-900" y="1880" />
            </Array>
          </mxGeometry>
        </mxCell>
        <mxCell id="jmKshsy80a_5EbKvajJt-2" value="" style="edgeStyle=none;orthogonalLoop=1;jettySize=auto;html=1;rounded=0;exitX=1;exitY=0.5;exitDx=0;exitDy=0;" parent="1" source="WJQeLxs7-rynea292Qw6-19" edge="1">
          <mxGeometry width="80" relative="1" as="geometry">
            <mxPoint x="-470" y="1820" as="sourcePoint" />
            <mxPoint x="-600" y="1080" as="targetPoint" />
            <Array as="points">
              <mxPoint x="-600" y="1880" />
            </Array>
          </mxGeometry>
        </mxCell>
        <mxCell id="jmKshsy80a_5EbKvajJt-3" value="" style="ellipse;whiteSpace=wrap;html=1;fillColor=#FFFFFF;" parent="1" vertex="1">
          <mxGeometry x="-903" y="1357" width="6" height="6" as="geometry" />
        </mxCell>
        <mxCell id="jmKshsy80a_5EbKvajJt-5" value="&lt;font size=&quot;1&quot; face=&quot;Times New Roman&quot;&gt;&lt;i style=&quot;font-size: 20px;&quot;&gt;i_inst_addr&lt;br&gt;&lt;/i&gt;&lt;/font&gt;" style="text;strokeColor=none;align=center;fillColor=none;html=1;verticalAlign=middle;whiteSpace=wrap;rounded=0;" parent="1" vertex="1">
          <mxGeometry x="-903" y="1880" width="100" height="20" as="geometry" />
        </mxCell>
        <mxCell id="jmKshsy80a_5EbKvajJt-6" value="&lt;font size=&quot;1&quot; face=&quot;Times New Roman&quot;&gt;&lt;i style=&quot;font-size: 20px;&quot;&gt;i_inst_rdata&lt;br&gt;&lt;/i&gt;&lt;/font&gt;" style="text;strokeColor=none;align=center;fillColor=none;html=1;verticalAlign=middle;whiteSpace=wrap;rounded=0;" parent="1" vertex="1">
          <mxGeometry x="-640" y="1880" width="100" height="20" as="geometry" />
        </mxCell>
        <mxCell id="jmKshsy80a_5EbKvajJt-9" value="" style="edgeStyle=none;orthogonalLoop=1;jettySize=auto;html=1;rounded=0;" parent="1" edge="1">
          <mxGeometry width="80" relative="1" as="geometry">
            <mxPoint x="1120" y="920" as="sourcePoint" />
            <mxPoint x="1120" y="1950" as="targetPoint" />
            <Array as="points" />
          </mxGeometry>
        </mxCell>
        <mxCell id="jmKshsy80a_5EbKvajJt-10" value="&lt;font face=&quot;Times New Roman&quot; style=&quot;font-size: 20px;&quot;&gt;&lt;i style=&quot;font-size: 20px;&quot;&gt;m_alu&lt;br&gt;&lt;/i&gt;&lt;/font&gt;" style="text;strokeColor=none;align=center;fillColor=none;html=1;verticalAlign=middle;whiteSpace=wrap;rounded=0;fontSize=20;" parent="1" vertex="1">
          <mxGeometry x="1061" y="1930" width="55" height="20" as="geometry" />
        </mxCell>
        <mxCell id="jmKshsy80a_5EbKvajJt-11" value="&lt;i&gt;&lt;font style=&quot;font-size: 20px;&quot; face=&quot;Times New Roman&quot;&gt;e_pc&lt;/font&gt;&lt;/i&gt;" style="text;strokeColor=none;align=center;fillColor=none;html=1;verticalAlign=middle;whiteSpace=wrap;rounded=0;" parent="1" vertex="1">
          <mxGeometry x="1461" y="1519" width="40" height="22" as="geometry" />
        </mxCell>
        <mxCell id="jmKshsy80a_5EbKvajJt-12" value="&lt;i&gt;&lt;font style=&quot;font-size: 20px;&quot; face=&quot;Times New Roman&quot;&gt;m_pc&lt;/font&gt;&lt;/i&gt;" style="text;strokeColor=none;align=center;fillColor=none;html=1;verticalAlign=middle;whiteSpace=wrap;rounded=0;" parent="1" vertex="1">
          <mxGeometry x="1191" y="1930" width="40" height="19" as="geometry" />
        </mxCell>
        <mxCell id="jmKshsy80a_5EbKvajJt-17" value="" style="edgeStyle=none;orthogonalLoop=1;jettySize=auto;html=1;rounded=0;fillColor=#1ba1e2;strokeColor=#006EAF;strokeWidth=3;" parent="1" edge="1">
          <mxGeometry width="80" relative="1" as="geometry">
            <mxPoint x="870" y="1379" as="sourcePoint" />
            <mxPoint x="890" y="1379" as="targetPoint" />
            <Array as="points" />
          </mxGeometry>
        </mxCell>
        <mxCell id="jmKshsy80a_5EbKvajJt-20" value="" style="edgeStyle=none;orthogonalLoop=1;jettySize=auto;html=1;rounded=0;fillColor=#1ba1e2;strokeColor=#006EAF;strokeWidth=3;" parent="1" edge="1">
          <mxGeometry width="80" relative="1" as="geometry">
            <mxPoint x="930" y="1380" as="sourcePoint" />
            <mxPoint x="1290" y="790" as="targetPoint" />
            <Array as="points">
              <mxPoint x="1290" y="1380" />
            </Array>
          </mxGeometry>
        </mxCell>
        <mxCell id="jmKshsy80a_5EbKvajJt-25" value="" style="whiteSpace=wrap;html=1;fillColor=#1ba1e2;fontColor=#ffffff;strokeColor=#006EAF;strokeWidth=3;" parent="1" vertex="1">
          <mxGeometry x="850" y="1330" width="20" height="100" as="geometry" />
        </mxCell>
        <mxCell id="jmKshsy80a_5EbKvajJt-31" value="" style="edgeStyle=none;orthogonalLoop=1;jettySize=auto;html=1;rounded=0;fillColor=#60a917;strokeColor=#2D7600;strokeWidth=3;" parent="1" edge="1">
          <mxGeometry width="80" relative="1" as="geometry">
            <mxPoint x="-60" y="380" as="sourcePoint" />
            <mxPoint x="-350" y="761" as="targetPoint" />
            <Array as="points">
              <mxPoint x="-60" y="400" />
              <mxPoint x="-350" y="400" />
            </Array>
          </mxGeometry>
        </mxCell>
        <mxCell id="jmKshsy80a_5EbKvajJt-32" value="" style="edgeStyle=none;orthogonalLoop=1;jettySize=auto;html=1;rounded=0;fillColor=#1ba1e2;strokeColor=#006EAF;strokeWidth=3;" parent="1" edge="1">
          <mxGeometry width="80" relative="1" as="geometry">
            <mxPoint x="1290" y="1380" as="sourcePoint" />
            <mxPoint x="1410" y="1380" as="targetPoint" />
            <Array as="points" />
          </mxGeometry>
        </mxCell>
        <mxCell id="jmKshsy80a_5EbKvajJt-33" value="" style="edgeStyle=none;orthogonalLoop=1;jettySize=auto;html=1;rounded=0;fillColor=#1ba1e2;strokeColor=#006EAF;strokeWidth=3;" parent="1" edge="1">
          <mxGeometry width="80" relative="1" as="geometry">
            <mxPoint x="1450" y="1379.66" as="sourcePoint" />
            <mxPoint x="1620" y="1160" as="targetPoint" />
            <Array as="points">
              <mxPoint x="1600" y="1380" />
              <mxPoint x="1600" y="1160" />
            </Array>
          </mxGeometry>
        </mxCell>
        <mxCell id="jmKshsy80a_5EbKvajJt-34" value="&lt;font face=&quot;Times New Roman&quot; style=&quot;font-size: 16px;&quot;&gt;&lt;i style=&quot;font-size: 16px;&quot;&gt;e_md_status&lt;/i&gt;&lt;/font&gt;" style="text;strokeColor=none;align=center;fillColor=none;html=1;verticalAlign=middle;whiteSpace=wrap;rounded=0;fontSize=16;" parent="1" vertex="1">
          <mxGeometry x="790" y="1280" width="105" height="20" as="geometry" />
        </mxCell>
        <mxCell id="jmKshsy80a_5EbKvajJt-36" value="" style="edgeStyle=none;orthogonalLoop=1;jettySize=auto;html=1;rounded=0;fillColor=#1ba1e2;strokeColor=#006EAF;strokeWidth=3;" parent="1" edge="1">
          <mxGeometry width="80" relative="1" as="geometry">
            <mxPoint x="800" y="860" as="sourcePoint" />
            <mxPoint x="760" y="1300" as="targetPoint" />
            <Array as="points">
              <mxPoint x="800" y="1200" />
              <mxPoint x="760" y="1200" />
            </Array>
          </mxGeometry>
        </mxCell>
        <mxCell id="frCffiUoH9rDY_dOXXMm-1" value="" style="edgeStyle=none;orthogonalLoop=1;jettySize=auto;html=1;rounded=0;fillColor=#1ba1e2;strokeColor=#006EAF;strokeWidth=3;" parent="1" edge="1">
          <mxGeometry width="80" relative="1" as="geometry">
            <mxPoint x="360" y="520" as="sourcePoint" />
            <mxPoint x="-330" y="760" as="targetPoint" />
            <Array as="points">
              <mxPoint x="-330" y="520" />
            </Array>
          </mxGeometry>
        </mxCell>
        <mxCell id="frCffiUoH9rDY_dOXXMm-2" value="" style="edgeStyle=none;orthogonalLoop=1;jettySize=auto;html=1;rounded=0;fillColor=#1ba1e2;strokeColor=#006EAF;strokeWidth=3;entryX=0;entryY=0.25;entryDx=0;entryDy=0;" parent="1" target="WJQeLxs7-rynea292Qw6-43" edge="1">
          <mxGeometry width="80" relative="1" as="geometry">
            <mxPoint x="-329.4871168870192" y="520" as="sourcePoint" />
            <mxPoint x="-590" y="680" as="targetPoint" />
            <Array as="points">
              <mxPoint x="-1080" y="520" />
              <mxPoint x="-1080" y="860" />
            </Array>
          </mxGeometry>
        </mxCell>
      </root>
    </mxGraphModel>
  </diagram>
</mxfile>
